<svg xmlns="http://www.w3.org/2000/svg" width="686" height="688" viewBox="0 0 686 688" style="transform: translate(0px); opacity: 1;">
            <g id="blockdesign" transform="translate(-935 -289)">
              <rect class="square-anim" data-name="Rectangle 2" width="172" height="172" rx="19" transform="matrix(1,0,0,1,1277,289)" fill="#6e00ff" style="transform-origin: 0px 0px 0px;" data-svg-origin="0 0"></rect>
              <rect class="square-anim" data-name="Rectangle 10" width="172" height="172" rx="86" transform="matrix(1,0,0,1,1277,461)" fill="#ff64cb" style="transform-origin: 0px 0px 0px;" data-svg-origin="0 0"></rect>
              <rect class="square-anim" data-name="Rectangle 8" width="172" height="172" rx="19" transform="matrix(1,0,0,1,1449,461)" fill="#e5d5fa" style="transform-origin: 0px 0px 0px;" data-svg-origin="0 0"></rect>
              <rect class="square-anim" data-name="Rectangle 5" width="172" height="172" rx="19" transform="matrix(1,0,0,1,1277,633)" fill="#6e00ff" style="transform-origin: 0px 0px 0px;" data-svg-origin="0 0"></rect>
              <rect class="square-anim" data-name="Rectangle 3" width="172" height="172" rx="19" transform="matrix(1,0,0,1,1107,461)" fill="#fff" style="transform-origin: 0px 0px 0px;" data-svg-origin="0 0"></rect>
              <rect class="square-anim" data-name="Rectangle 9" width="172" height="172" rx="86" transform="matrix(1,0,0,1,1107,633)" fill="#00f7ff" style="transform-origin: 0px 0px 0px;" data-svg-origin="0 0"></rect>
              <rect class="square-anim" data-name="Rectangle 7" width="172" height="172" rx="19" transform="matrix(1,0,0,1,935,633)" fill="#fff" opacity="0.17" style="transform-origin: 0px 0px 0px;" data-svg-origin="0 0"></rect>
              <rect class="square-anim" data-name="Rectangle 4" width="172" height="172" rx="19" transform="matrix(1,0,0,1,1107,805)" fill="#fff" style="transform-origin: 0px 0px 0px;" data-svg-origin="0 0"></rect>
            </g>
          </svg>